<svg width="24" height="24" viewBox="0 0 24 24" fill="none" xmlns="http://www.w3.org/2000/svg">
  <path d="M22.56 12.25C22.56 11.47 22.49 10.72 22.36 10H12V14.255H17.92C17.665 15.63 16.89 16.795 15.725 17.575V20.335H19.28C21.36 18.42 22.56 15.6 22.56 12.25Z" fill="#4285F4"/>
  <path d="M12 23C14.97 23 17.46 22.015 19.28 20.335L15.725 17.575C14.74 18.235 13.48 18.625 12 18.625C9.135 18.625 6.715 16.695 5.825 14.09H2.17V16.94C3.98 20.535 7.7 23 12 23Z" fill="#34A853"/>
  <path d="M5.825 14.09C5.61 13.43 5.485 12.725 5.485 12C5.485 11.275 5.61 10.57 5.825 9.91V7.06H2.17C1.4 8.59 0.97 10.28 0.97 12C0.97 13.72 1.4 15.41 2.17 16.94L5.825 14.09Z" fill="#FBBC05"/>
  <path d="M12 5.375C13.615 5.375 15.065 5.93 16.205 7.02L19.36 3.865C17.455 2.09 14.965 1 12 1C7.7 1 3.98 3.465 2.17 7.06L5.825 9.91C6.715 7.305 9.135 5.375 12 5.375Z" fill="#EA4335"/>
</svg> 