<svg width="24" height="24" viewBox="0 0 24 24" fill="none" xmlns="http://www.w3.org/2000/svg">
  <path d="M12.785 16.241C12.785 16.241 13.131 16.203 13.306 16.015C13.468 15.84 13.462 15.512 13.462 15.512C13.462 15.512 13.441 14.122 14.096 13.898C14.742 13.677 15.561 15.235 16.43 15.898C17.094 16.396 17.598 16.285 17.598 16.285L20.392 16.241C20.392 16.241 21.606 16.159 21.027 15.168C20.974 15.081 20.684 14.453 19.338 13.195C17.92 11.871 18.137 12.117 19.846 9.885C20.894 8.479 21.298 7.612 21.146 7.228C21.001 6.863 20.219 6.967 20.219 6.967L17.043 6.985C17.043 6.985 16.823 6.957 16.658 7.057C16.497 7.155 16.396 7.38 16.396 7.38C16.396 7.38 16.008 8.43 15.486 9.323C14.389 11.212 13.949 11.328 13.731 11.186C13.234 10.859 13.356 9.999 13.356 9.389C13.356 7.569 13.677 6.831 12.821 6.602C12.52 6.524 12.295 6.475 11.569 6.467C10.64 6.457 9.855 6.471 9.427 6.713C9.142 6.877 8.923 7.243 9.082 7.263C9.277 7.288 9.72 7.383 9.918 7.706C10.173 8.123 10.162 8.938 10.162 8.938C10.162 8.938 10.331 10.878 9.846 11.198C9.516 11.418 9.063 11.053 8.089 9.297C7.587 8.424 7.211 7.462 7.211 7.462C7.211 7.462 7.126 7.245 6.971 7.13C6.782 6.991 6.518 6.946 6.518 6.946L3.49 6.966C3.49 6.966 3.103 6.979 2.95 7.161C2.812 7.325 2.939 7.67 2.939 7.67C2.939 7.67 4.78 11.998 6.891 14.185C8.824 16.176 11.03 16.037 11.03 16.037H12.285C12.285 16.037 12.643 16.001 12.825 15.8C12.992 15.616 12.985 15.318 12.985 15.318C12.985 15.318 12.964 14.178 13.492 13.94C14.012 13.704 14.666 15.04 15.362 15.66C15.882 16.126 16.275 16.044 16.275 16.044L18.901 16.022C18.901 16.022 19.893 15.957 19.419 15.182C19.367 15.097 19.132 14.585 18.006 13.545C16.821 12.447 16.971 12.616 18.391 10.715C19.33 9.472 19.743 8.643 19.644 8.318C19.551 8.008 18.787 8.092 18.787 8.092L16.14 8.109C16.14 8.109 15.97 8.091 15.842 8.161C15.718 8.229 15.638 8.379 15.638 8.379C15.638 8.379 15.238 9.38 14.71 10.22C13.6 12.003 13.15 12.115 12.978 12.014C12.584 11.787 12.691 10.966 12.691 10.384C12.691 8.653 12.97 7.961 12.199 7.759C11.97 7.698 11.803 7.657 11.144 7.65C10.295 7.642 9.573 7.653 9.186 7.866C8.927 8.007 8.728 8.331 8.868 8.349C9.042 8.371 9.43 8.45 9.604 8.737C9.829 9.111 9.82 9.875 9.82 9.875C9.82 9.875 9.967 11.768 9.511 11.991C9.202 12.141 8.789 11.815 7.902 10.198C7.394 9.37 7.005 8.446 7.005 8.446C7.005 8.446 6.935 8.301 6.812 8.223C6.662 8.129 6.454 8.096 6.454 8.096L3.932 8.113C3.932 8.113 3.627 8.122 3.504 8.267C3.396 8.395 3.495 8.652 3.495 8.652C3.495 8.652 5.266 12.416 7.304 14.309C9.16 16.019 11.297 15.973 11.297 15.973H12.785V16.241Z" fill="white"/>
</svg> 