<svg xmlns="http://www.w3.org/2000/svg" width="40" height="24" viewBox="0 0 40 24">
  <rect width="40" height="24" rx="3" fill="#F9F9F9" stroke="#DDD"/>
  <path d="M16 7H24V17H16V7Z" fill="#FF5F00"/>
  <path d="M16.533 12C16.533 9.904 17.547 8.027 19.133 7C18.116 6.219 16.848 5.778 15.467 5.778C11.879 5.778 9 8.577 9 12C9 15.423 11.879 18.222 15.467 18.222C16.848 18.222 18.116 17.781 19.133 17C17.547 15.973 16.533 14.096 16.533 12Z" fill="#EB001B"/>
  <path d="M31 12C31 15.423 28.121 18.222 24.533 18.222C23.152 18.222 21.884 17.781 20.867 17C22.453 15.973 23.467 14.096 23.467 12C23.467 9.904 22.453 8.027 20.867 7C21.884 6.219 23.152 5.778 24.533 5.778C28.121 5.778 31 8.577 31 12Z" fill="#F79E1B"/>
</svg> 