<svg xmlns="http://www.w3.org/2000/svg" width="40" height="24" viewBox="0 0 40 24">
  <rect width="40" height="24" rx="3" fill="#F9F9F9" stroke="#DDD"/>
  <path d="M13.547 16.786H10.855L12.583 7.214H15.275L13.547 16.786ZM7.962 7.214L5.376 13.708L5.07 12.039L5.07 12.038L4.312 8.097C4.312 8.097 4.226 7.214 3.108 7.214H0.063L0 7.421C0 7.421 0.935 7.603 2.028 8.157L4.32 16.786H7.132L11.487 7.214H7.962ZM30.934 16.786H33.43L31.202 7.214H29.008C28.054 7.214 27.717 7.949 27.717 7.949L23.926 16.786H26.738L27.296 15.229H30.529L30.934 16.786ZM28.07 13.026L29.369 9.761L30.106 13.026H28.07ZM23.455 9.448L23.825 7.525C23.825 7.525 22.289 7 20.667 7C18.954 7 15.292 7.785 15.292 11.08C15.292 14.212 19.57 14.112 19.57 15.58C19.57 17.048 15.941 16.76 14.519 15.843L14.132 17.873C14.132 17.873 15.685 18.786 18.062 18.786C20.438 18.786 23.388 17.628 23.388 14.57C23.388 11.456 19.076 11.318 19.076 10.099C19.076 8.881 22.072 9.075 23.455 9.448Z" fill="#172B85"/>
  <path d="M5.07 12.039L4.312 8.098C4.312 8.098 4.226 7.214 3.108 7.214H0.063L0 7.421C0 7.421 1.465 7.718 2.875 8.782C4.222 9.798 5.07 12.039 5.07 12.039Z" fill="#F9A533"/>
</svg> 